<svg width="127" height="44" viewBox="0 0 127 44" fill="none" xmlns="http://www.w3.org/2000/svg">
<path d="M25.2573 9.45715C26.3551 9.45715 27.245 8.57131 27.245 7.47858C27.245 6.38584 26.3551 5.5 25.2573 5.5C24.1596 5.5 23.2697 6.38584 23.2697 7.47858C23.2697 8.57131 24.1596 9.45715 25.2573 9.45715Z" fill="#131F37"/>
<path d="M27.4934 37.4048C28.5912 37.4048 29.4811 36.5189 29.4811 35.4262C29.4811 34.3335 28.5912 33.4476 27.4934 33.4476C26.3957 33.4476 25.5057 34.3335 25.5057 35.4262C25.5057 36.5189 26.3957 37.4048 27.4934 37.4048Z" fill="#131F37"/>
<path d="M25.8253 14.4037C26.7467 14.4037 27.4936 13.6602 27.4936 12.7431C27.4936 11.826 26.7467 11.0825 25.8253 11.0825C24.904 11.0825 24.1571 11.826 24.1571 12.7431C24.1571 13.6602 24.904 14.4037 25.8253 14.4037Z" fill="#131F37"/>
<path d="M30.2626 15.0396C31.1839 15.0396 31.9308 14.2961 31.9308 13.379C31.9308 12.4619 31.1839 11.7184 30.2626 11.7184C29.3413 11.7184 28.5944 12.4619 28.5944 13.379C28.5944 14.2961 29.3413 15.0396 30.2626 15.0396Z" fill="#131F37"/>
<path d="M25.2576 18.608C26.0417 18.608 26.6773 17.9753 26.6773 17.1948C26.6773 16.4142 26.0417 15.7815 25.2576 15.7815C24.4734 15.7815 23.8378 16.4142 23.8378 17.1948C23.8378 17.9753 24.4734 18.608 25.2576 18.608Z" fill="#131F37"/>
<path d="M29.6941 19.209C30.4782 19.209 31.1139 18.5762 31.1139 17.7957C31.1139 17.0152 30.4782 16.3824 29.6941 16.3824C28.91 16.3824 28.2743 17.0152 28.2743 17.7957C28.2743 18.5762 28.91 19.209 29.6941 19.209Z" fill="#131F37"/>
<path d="M33.2438 20.5868C34.0279 20.5868 34.6635 19.954 34.6635 19.1735C34.6635 18.393 34.0279 17.7603 33.2438 17.7603C32.4596 17.7603 31.824 18.393 31.824 19.1735C31.824 19.954 32.4596 20.5868 33.2438 20.5868Z" fill="#131F37"/>
<path d="M28.3807 22.6005C29.0668 22.6005 29.623 22.0469 29.623 21.3639C29.623 20.681 29.0668 20.1273 28.3807 20.1273C27.6946 20.1273 27.1384 20.681 27.1384 21.3639C27.1384 22.0469 27.6946 22.6005 28.3807 22.6005Z" fill="#131F37"/>
<path d="M23.9443 21.9996C24.6304 21.9996 25.1866 21.4459 25.1866 20.763C25.1866 20.08 24.6304 19.5264 23.9443 19.5264C23.2582 19.5264 22.702 20.08 22.702 20.763C22.702 21.4459 23.2582 21.9996 23.9443 21.9996Z" fill="#131F37"/>
<path d="M31.9657 23.9784C32.6518 23.9784 33.208 23.4247 33.208 22.7417C33.208 22.0588 32.6518 21.5051 31.9657 21.5051C31.2796 21.5051 30.7234 22.0588 30.7234 22.7417C30.7234 23.4247 31.2796 23.9784 31.9657 23.9784Z" fill="#131F37"/>
<path d="M26.6063 25.1796C27.1944 25.1796 27.6712 24.705 27.6712 24.1196C27.6712 23.5342 27.1944 23.0597 26.6063 23.0597C26.0182 23.0597 25.5415 23.5342 25.5415 24.1196C25.5415 24.705 26.0182 25.1796 26.6063 25.1796Z" fill="#131F37"/>
<path d="M30.1913 26.5224C30.7794 26.5224 31.2561 26.0478 31.2561 25.4624C31.2561 24.877 30.7794 24.4025 30.1913 24.4025C29.6032 24.4025 29.1265 24.877 29.1265 25.4624C29.1265 26.0478 29.6032 26.5224 30.1913 26.5224Z" fill="#131F37"/>
<path d="M22.2046 24.5434C22.7927 24.5434 23.2694 24.0688 23.2694 23.4834C23.2694 22.898 22.7927 22.4235 22.2046 22.4235C21.6165 22.4235 21.1398 22.898 21.1398 23.4834C21.1398 24.0688 21.6165 24.5434 22.2046 24.5434Z" fill="#131F37"/>
<path d="M24.6538 26.9111C25.1439 26.9111 25.5412 26.5157 25.5412 26.0278C25.5412 25.54 25.1439 25.1445 24.6538 25.1445C24.1638 25.1445 23.7665 25.54 23.7665 26.0278C23.7665 26.5157 24.1638 26.9111 24.6538 26.9111Z" fill="#131F37"/>
<path d="M26.18 29.3489C26.6113 29.3489 26.9609 29.0009 26.9609 28.5716C26.9609 28.1423 26.6113 27.7943 26.18 27.7943C25.7488 27.7943 25.3992 28.1423 25.3992 28.5716C25.3992 29.0009 25.7488 29.3489 26.18 29.3489Z" fill="#131F37"/>
<path d="M24.2989 29.8438C24.6518 29.8438 24.9378 29.5591 24.9378 29.2079C24.9378 28.8566 24.6518 28.5719 24.2989 28.5719C23.9461 28.5719 23.66 28.8566 23.66 29.2079C23.66 29.5591 23.9461 29.8438 24.2989 29.8438Z" fill="#131F37"/>
<path d="M22.6306 28.0062C23.0619 28.0062 23.4115 27.6582 23.4115 27.229C23.4115 26.7997 23.0619 26.4517 22.6306 26.4517C22.1993 26.4517 21.8497 26.7997 21.8497 27.229C21.8497 27.6582 22.1993 28.0062 22.6306 28.0062Z" fill="#131F37"/>
<path d="M20.2174 26.3105C20.7075 26.3105 21.1048 25.9151 21.1048 25.4272C21.1048 24.9394 20.7075 24.5439 20.2174 24.5439C19.7274 24.5439 19.3301 24.9394 19.3301 25.4272C19.3301 25.9151 19.7274 26.3105 20.2174 26.3105Z" fill="#131F37"/>
<path d="M20.1817 19.6676C20.6718 19.6676 21.069 19.2721 21.069 18.7843C21.069 18.2965 20.6718 17.901 20.1817 17.901C19.6916 17.901 19.2943 18.2965 19.2943 18.7843C19.2943 19.2721 19.6916 19.6676 20.1817 19.6676Z" fill="#131F37"/>
<path d="M20.572 16.5585C21.0033 16.5585 21.3529 16.2105 21.3529 15.7812C21.3529 15.3519 21.0033 15.0039 20.572 15.0039C20.1407 15.0039 19.7911 15.3519 19.7911 15.7812C19.7911 16.2105 20.1407 16.5585 20.572 16.5585Z" fill="#131F37"/>
<path d="M21.4242 14.0147C21.777 14.0147 22.0631 13.73 22.0631 13.3788C22.0631 13.0275 21.777 12.7428 21.4242 12.7428C21.0713 12.7428 20.7853 13.0275 20.7853 13.3788C20.7853 13.73 21.0713 14.0147 21.4242 14.0147Z" fill="#131F37"/>
<path d="M19.9331 12.8136C20.3644 12.8136 20.714 12.4656 20.714 12.0363C20.714 11.607 20.3644 11.259 19.9331 11.259C19.5018 11.259 19.1522 11.607 19.1522 12.0363C19.1522 12.4656 19.5018 12.8136 19.9331 12.8136Z" fill="#131F37"/>
<path d="M28.2034 28.2534C28.6935 28.2534 29.0908 27.8579 29.0908 27.3701C29.0908 26.8823 28.6935 26.4868 28.2034 26.4868C27.7133 26.4868 27.316 26.8823 27.316 27.3701C27.316 27.8579 27.7133 28.2534 28.2034 28.2534Z" fill="#131F37"/>
<path d="M17.9101 11.7889C18.4002 11.7889 18.7974 11.3935 18.7974 10.9056C18.7974 10.4178 18.4002 10.0223 17.9101 10.0223C17.42 10.0223 17.0227 10.4178 17.0227 10.9056C17.0227 11.3935 17.42 11.7889 17.9101 11.7889Z" fill="#131F37"/>
<path d="M18.5135 15.5343C19.0035 15.5343 19.4008 15.1388 19.4008 14.651C19.4008 14.1632 19.0035 13.7677 18.5135 13.7677C18.0234 13.7677 17.6261 14.1632 17.6261 14.651C17.6261 15.1388 18.0234 15.5343 18.5135 15.5343Z" fill="#131F37"/>
<path d="M17.5199 19.1027C18.108 19.1027 18.5848 18.6281 18.5848 18.0427C18.5848 17.4573 18.108 16.9828 17.5199 16.9828C16.9318 16.9828 16.4551 17.4573 16.4551 18.0427C16.4551 18.6281 16.9318 19.1027 17.5199 19.1027Z" fill="#131F37"/>
<path d="M14.2894 19.1024C14.9755 19.1024 15.5317 18.5487 15.5317 17.8658C15.5317 17.1828 14.9755 16.6292 14.2894 16.6292C13.6033 16.6292 13.0471 17.1828 13.0471 17.8658C13.0471 18.5487 13.6033 19.1024 14.2894 19.1024Z" fill="#131F37"/>
<path d="M10.5273 19.9508C11.3115 19.9508 11.9471 19.3181 11.9471 18.5375C11.9471 17.757 11.3115 17.1243 10.5273 17.1243C9.7432 17.1243 9.10754 17.757 9.10754 18.5375C9.10754 19.3181 9.7432 19.9508 10.5273 19.9508Z" fill="#131F37"/>
<path d="M6.41007 21.965C7.33141 21.965 8.07831 21.2215 8.07831 20.3044C8.07831 19.3873 7.33141 18.6438 6.41007 18.6438C5.48872 18.6438 4.74182 19.3873 4.74182 20.3044C4.74182 21.2215 5.48872 21.965 6.41007 21.965Z" fill="#131F37"/>
<path d="M2.15054 25.3564C3.24831 25.3564 4.13823 24.4706 4.13823 23.3779C4.13823 22.2851 3.24831 21.3993 2.15054 21.3993C1.05277 21.3993 0.162842 22.2851 0.162842 23.3779C0.162842 24.4706 1.05277 25.3564 2.15054 25.3564Z" fill="#131F37"/>
<path d="M4.74185 17.8309C5.6632 17.8309 6.4101 17.0875 6.4101 16.1704C6.4101 15.2532 5.6632 14.5098 4.74185 14.5098C3.82051 14.5098 3.07361 15.2532 3.07361 16.1704C3.07361 17.0875 3.82051 17.8309 4.74185 17.8309Z" fill="#131F37"/>
<path d="M8.85887 15.8168C9.64299 15.8168 10.2787 15.184 10.2787 14.4035C10.2787 13.623 9.64299 12.9902 8.85887 12.9902C8.07474 12.9902 7.43909 13.623 7.43909 14.4035C7.43909 15.184 8.07474 15.8168 8.85887 15.8168Z" fill="#131F37"/>
<path d="M8.25548 12.0714C9.0396 12.0714 9.67526 11.4387 9.67526 10.6581C9.67526 9.87761 9.0396 9.24487 8.25548 9.24487C7.47135 9.24487 6.83569 9.87761 6.83569 10.6581C6.83569 11.4387 7.47135 12.0714 8.25548 12.0714Z" fill="#131F37"/>
<path d="M12.0181 11.2236C12.7042 11.2236 13.2604 10.6699 13.2604 9.98698C13.2604 9.30402 12.7042 8.75037 12.0181 8.75037C11.332 8.75037 10.7758 9.30402 10.7758 9.98698C10.7758 10.6699 11.332 11.2236 12.0181 11.2236Z" fill="#131F37"/>
<path d="M15.2477 11.2237C15.8358 11.2237 16.3125 10.7491 16.3125 10.1637C16.3125 9.57832 15.8358 9.10376 15.2477 9.10376C14.6596 9.10376 14.1829 9.57832 14.1829 10.1637C14.1829 10.7491 14.6596 11.2237 15.2477 11.2237Z" fill="#131F37"/>
<path d="M15.8515 14.9685C16.4396 14.9685 16.9163 14.494 16.9163 13.9086C16.9163 13.3232 16.4396 12.8486 15.8515 12.8486C15.2634 12.8486 14.7866 13.3232 14.7866 13.9086C14.7866 14.494 15.2634 14.9685 15.8515 14.9685Z" fill="#131F37"/>
<path d="M12.6215 15.0043C13.3076 15.0043 13.8638 14.4507 13.8638 13.7677C13.8638 13.0848 13.3076 12.5311 12.6215 12.5311C11.9354 12.5311 11.3792 13.0848 11.3792 13.7677C11.3792 14.4507 11.9354 15.0043 12.6215 15.0043Z" fill="#131F37"/>
<path d="M9.10729 24.4023C9.46014 24.4023 9.74618 24.1176 9.74618 23.7663C9.74618 23.4151 9.46014 23.1304 9.10729 23.1304C8.75443 23.1304 8.46838 23.4151 8.46838 23.7663C8.46838 24.1176 8.75443 24.4023 9.10729 24.4023Z" fill="#131F37"/>
<path d="M11.6632 24.0846C12.0945 24.0846 12.4441 23.7366 12.4441 23.3073C12.4441 22.878 12.0945 22.53 11.6632 22.53C11.2319 22.53 10.8823 22.878 10.8823 23.3073C10.8823 23.7366 11.2319 24.0846 11.6632 24.0846Z" fill="#131F37"/>
<path d="M14.4668 23.0249C14.9569 23.0249 15.3542 22.6294 15.3542 22.1416C15.3542 21.6538 14.9569 21.2583 14.4668 21.2583C13.9768 21.2583 13.5795 21.6538 13.5795 22.1416C13.5795 22.6294 13.9768 23.0249 14.4668 23.0249Z" fill="#131F37"/>
<path d="M15.1415 25.8511C15.7296 25.8511 16.2063 25.3765 16.2063 24.7912C16.2063 24.2058 15.7296 23.7312 15.1415 23.7312C14.5534 23.7312 14.0767 24.2058 14.0767 24.7912C14.0767 25.3765 14.5534 25.8511 15.1415 25.8511Z" fill="#131F37"/>
<path d="M11.7344 26.5222C12.2245 26.5222 12.6218 26.1267 12.6218 25.6389C12.6218 25.1511 12.2245 24.7556 11.7344 24.7556C11.2443 24.7556 10.847 25.1511 10.847 25.6389C10.847 26.1267 11.2443 26.5222 11.7344 26.5222Z" fill="#131F37"/>
<path d="M8.7168 26.4867C9.14806 26.4867 9.49768 26.1387 9.49768 25.7094C9.49768 25.2801 9.14806 24.9321 8.7168 24.9321C8.28553 24.9321 7.93591 25.2801 7.93591 25.7094C7.93591 26.1387 8.28553 26.4867 8.7168 26.4867Z" fill="#131F37"/>
<path d="M8.75223 28.925C9.24231 28.925 9.6396 28.5296 9.6396 28.0417C9.6396 27.5539 9.24231 27.1584 8.75223 27.1584C8.26216 27.1584 7.86487 27.5539 7.86487 28.0417C7.86487 28.5296 8.26216 28.925 8.75223 28.925Z" fill="#131F37"/>
<path d="M12.3729 29.3842C12.961 29.3842 13.4378 28.9096 13.4378 28.3242C13.4378 27.7388 12.961 27.2643 12.3729 27.2643C11.7849 27.2643 11.3081 27.7388 11.3081 28.3242C11.3081 28.9096 11.7849 29.3842 12.3729 29.3842Z" fill="#131F37"/>
<path d="M16.597 28.9249C17.2832 28.9249 17.8394 28.3712 17.8394 27.6883C17.8394 27.0053 17.2832 26.4517 16.597 26.4517C15.9109 26.4517 15.3547 27.0053 15.3547 27.6883C15.3547 28.3712 15.9109 28.9249 16.597 28.9249Z" fill="#131F37"/>
<path d="M19.0812 31.9984C19.8653 31.9984 20.5009 31.3657 20.5009 30.5851C20.5009 29.8046 19.8653 29.1719 19.0812 29.1719C18.297 29.1719 17.6614 29.8046 17.6614 30.5851C17.6614 31.3657 18.297 31.9984 19.0812 31.9984Z" fill="#131F37"/>
<path d="M13.8638 32.4228C14.5499 32.4228 15.1061 31.8692 15.1061 31.1862C15.1061 30.5032 14.5499 29.9496 13.8638 29.9496C13.1777 29.9496 12.6215 30.5032 12.6215 31.1862C12.6215 31.8692 13.1777 32.4228 13.8638 32.4228Z" fill="#131F37"/>
<path d="M10.9175 34.825C11.6036 34.825 12.1598 34.2714 12.1598 33.5884C12.1598 32.9055 11.6036 32.3518 10.9175 32.3518C10.2314 32.3518 9.67517 32.9055 9.67517 33.5884C9.67517 34.2714 10.2314 34.825 10.9175 34.825Z" fill="#131F37"/>
<path d="M13.3666 37.9346C14.1507 37.9346 14.7863 37.3018 14.7863 36.5213C14.7863 35.7408 14.1507 35.108 13.3666 35.108C12.5824 35.108 11.9468 35.7408 11.9468 36.5213C11.9468 37.3018 12.5824 37.9346 13.3666 37.9346Z" fill="#131F37"/>
<path d="M19.8977 38.4999C20.8191 38.4999 21.566 37.7564 21.566 36.8393C21.566 35.9222 20.8191 35.1787 19.8977 35.1787C18.9764 35.1787 18.2295 35.9222 18.2295 36.8393C18.2295 37.7564 18.9764 38.4999 19.8977 38.4999Z" fill="#131F37"/>
<path d="M16.3128 35.5316C17.097 35.5316 17.7326 34.8989 17.7326 34.1183C17.7326 33.3378 17.097 32.7051 16.3128 32.7051C15.5287 32.7051 14.8931 33.3378 14.8931 34.1183C14.8931 34.8989 15.5287 35.5316 16.3128 35.5316Z" fill="#131F37"/>
<path d="M22.631 34.9669C23.5524 34.9669 24.2993 34.2235 24.2993 33.3063C24.2993 32.3892 23.5524 31.6458 22.631 31.6458C21.7097 31.6458 20.9628 32.3892 20.9628 33.3063C20.9628 34.2235 21.7097 34.9669 22.631 34.9669Z" fill="#131F37"/>
<path d="M9.42666 31.7869C10.0148 31.7869 10.4915 31.3123 10.4915 30.7269C10.4915 30.1415 10.0148 29.667 9.42666 29.667C8.83856 29.667 8.36182 30.1415 8.36182 30.7269C8.36182 31.3123 8.83856 31.7869 9.42666 31.7869Z" fill="#131F37"/>
<path d="M51.2812 11.3905H48.8442V32.7156H51.2812V11.3905Z" fill="#131F37"/>
<path d="M59.1261 22.0359C59.1261 16.0605 64.1438 10.9999 70.0446 10.9999C75.9796 10.9999 80.9254 16.0228 80.9254 22.0359C80.9254 28.049 75.9453 33.0719 70.0446 33.0719C64.178 33.1062 59.1261 28.049 59.1261 22.0359ZM78.4884 22.0359C78.4884 17.2974 74.6379 13.2646 70.0446 13.2646C65.4513 13.2646 61.5665 17.2974 61.5665 22.0359C61.5665 26.8121 65.4513 30.8414 70.0446 30.8414C74.6379 30.8414 78.4884 26.8121 78.4884 22.0359Z" fill="#131F37"/>
<path d="M93.4321 13.6895H86.2615V11.3905H103.009V13.6895H95.8348V32.7156H93.3978L93.4321 13.6895Z" fill="#131F37"/>
<path d="M115.796 14.3611L107.705 32.7156H105.055L113.924 12.5931C114.242 11.8496 114.985 11.3905 115.762 11.3905C116.573 11.3905 117.281 11.8496 117.6 12.5931L126.468 32.7156H123.819L115.796 14.3611Z" fill="#131F37"/>
</svg>
